<?xml version="1.0" encoding="iso-8859-1"?>
<!-- Uploaded to: SVG Repo, www.svgrepo.com, Generator: SVG Repo Mixer Tools -->
<svg height="800px" width="800px" version="1.1" id="Capa_1" xmlns="http://www.w3.org/2000/svg" xmlns:xlink="http://www.w3.org/1999/xlink" 
	 viewBox="0 0 269.272 269.272" xml:space="preserve">
<g>
	<path style="fill:#010002;" d="M37.889,148.674v-28.142c0-6.799,5.521-12.319,12.319-12.319h27.603
		c6.799,0,9.225,4.569,5.412,10.198L61.32,150.79c-3.813,5.635-10.601,10.198-15.164,10.198
		C41.593,160.994,37.889,155.478,37.889,148.674z"/>
	<g>
		<path style="fill:#010002;" d="M244.268,89.611c-5.559-1.61-10.481-6.755-14.968-12.069c-3.845-4.558-9.48-7.174-15.474-7.174
			H20.304C9.105,70.368,0,79.457,0,90.634v87.961c0,11.199,9.11,20.309,20.304,20.309h193.527c5.988,0,11.629-2.627,15.474-7.212
			c3.845-4.569,9.116-10.835,14.963-12.776c9.339-3.095,25.003-11.814,25.003-35.403v-19.314
			C269.266,123.921,268.978,96.764,244.268,89.611z M240.195,108.98c0,0.751,3.1,1.893,4.667,4.922
			c0.848,1.648,1.371,3.737,1.371,5.972v28.794c0,5.205-2.785,9.6-6.081,9.6s-6.086-4.395-6.086-9.6v-28.686
			c0-2.257,0.522-4.362,1.387-6.026c1.583-3.062,4.721-4.232,4.727-4.982C240.189,108.235,240.195,108.235,240.195,108.98z
			 M211.112,99.423v70.36c0,3.356-2.725,6.081-6.07,6.081H29.099c-3.35,0-6.075-2.725-6.075-6.081v-70.36
			c0-3.35,2.725-6.075,6.075-6.075h175.943C208.387,93.348,211.112,96.073,211.112,99.423z"/>
	</g>
</g>
</svg>