<?xml version="1.0" standalone="no"?>
<!DOCTYPE svg PUBLIC "-//W3C//DTD SVG 20010904//EN"
 "http://www.w3.org/TR/2001/REC-SVG-20010904/DTD/svg10.dtd">
<svg version="1.0" xmlns="http://www.w3.org/2000/svg"
 width="512.000000pt" height="512.000000pt" viewBox="0 0 512.000000 512.000000"
 preserveAspectRatio="xMidYMid meet">
<metadata>
Created by potrace 1.14, written by Peter Selinger 2001-2017
</metadata>
<g transform="translate(0.000000,512.000000) scale(0.100000,-0.100000)"
fill="#000000" stroke="none">
<path d="M0 4745 c0 -350 1 -375 18 -375 16 -1 16 -1 0 -11 -26 -15 -23 -47 5
-52 21 -4 21 -4 1 -6 -18 -1 -22 -8 -22 -46 -1 -25 2 -45 7 -45 4 0 58 34 121
76 138 93 296 177 461 243 68 28 128 51 132 51 5 0 37 11 72 26 l64 25 30 -22
c16 -11 38 -34 50 -50 l21 -28 -39 -20 c-21 -11 -41 -17 -45 -14 -3 4 -6 -1
-6 -10 0 -9 -5 -19 -10 -22 -6 -4 -9 -3 -8 2 3 8 -5 13 -20 13 -5 0 -14 -12
-21 -27 -10 -23 -10 -26 0 -15 25 23 29 12 7 -18 -16 -22 -24 -27 -30 -18 -6
9 -8 7 -5 -7 3 -18 -27 -95 -38 -95 -2 0 1 15 6 32 11 40 11 38 -1 38 -5 0
-10 -7 -10 -16 0 -10 -6 -14 -15 -10 -8 3 -15 1 -15 -4 0 -6 -7 -10 -15 -10
-13 0 -13 -3 -3 -14 11 -11 15 -11 25 3 6 9 15 13 19 8 4 -4 2 -7 -5 -7 -7 0
-9 -5 -6 -11 4 -6 -3 -13 -15 -16 -15 -4 -20 -11 -17 -24 3 -12 -2 -20 -13
-24 -10 -3 -21 -13 -24 -21 -3 -8 -10 -12 -16 -9 -5 3 -10 1 -10 -4 0 -17 -14
-13 -40 9 -25 22 -30 24 -30 12 0 -4 12 -15 27 -24 l26 -16 -29 -14 c-16 -8
-38 -13 -49 -11 -11 1 -14 0 -7 -3 19 -9 14 -27 -5 -20 -10 4 -14 4 -10 0 8
-8 -59 -57 -83 -61 -8 -1 -16 -7 -18 -13 -2 -5 -8 -8 -13 -5 -5 4 -7 0 -4 -7
3 -7 -14 -26 -38 -43 -32 -23 -38 -31 -24 -33 18 -4 107 47 107 61 0 4 7 7 15
7 8 0 15 4 15 9 0 8 112 81 126 81 4 0 -3 -9 -15 -19 -12 -11 -22 -23 -22 -28
0 -4 -9 -6 -21 -5 -16 3 -19 0 -15 -12 4 -9 2 -16 -2 -16 -17 0 1 -39 21 -46
14 -4 17 -9 9 -17 -8 -8 -18 -2 -36 19 -27 31 -27 31 -28 -32 -1 -15 -6 -20
-19 -16 -10 2 -18 -1 -18 -7 0 -7 -4 -10 -9 -7 -10 6 -32 -39 -24 -48 13 -13
21 -5 16 14 -4 16 0 20 21 20 14 0 26 -4 26 -10 0 -5 -3 -9 -7 -9 -5 1 -15 1
-23 0 -11 -1 -12 -3 -2 -9 8 -6 -1 -15 -30 -31 -24 -12 -35 -16 -25 -8 20 17
22 28 3 21 -17 -6 -29 23 -14 32 7 4 8 3 4 -4 -4 -7 -2 -12 4 -12 14 0 9 32
-6 37 -6 2 -16 -15 -23 -38 -8 -27 -16 -38 -21 -30 -5 10 -9 9 -13 -3 -4 -9
-1 -16 5 -16 25 0 -8 -19 -44 -25 -33 -6 -38 -5 -39 11 0 15 -3 13 -10 -6 -8
-20 -6 -28 10 -42 12 -9 21 -21 21 -27 0 -6 3 -10 8 -8 4 1 8 -2 9 -7 1 -5 7
-13 15 -17 9 -6 10 -9 1 -9 -7 0 -10 -7 -7 -15 4 -8 10 -15 16 -15 5 0 7 3 4
8 -2 4 2 16 10 27 13 18 14 17 8 -12 -6 -29 -5 -30 22 -27 16 2 23 1 16 -2 -6
-3 -10 -10 -6 -15 9 -15 24 -10 24 9 0 24 27 24 33 0 3 -10 1 -16 -4 -12 -5 3
-9 -1 -9 -10 0 -8 -6 -17 -12 -19 -7 -3 -8 -6 -2 -6 5 -1 20 8 32 19 19 18 22
19 22 4 0 -16 1 -16 19 0 22 20 52 18 59 -2 3 -11 1 -11 -17 0 -18 11 -23 11
-31 -2 -14 -21 -12 -36 2 -22 8 8 17 8 31 0 16 -8 23 -7 32 5 14 19 55 19 48
0 -3 -7 -14 -13 -24 -13 -13 0 -17 -5 -12 -17 4 -10 8 -12 11 -5 4 14 32 -9
32 -27 0 -6 9 -3 19 6 11 9 17 22 14 30 -4 11 0 11 21 3 23 -8 26 -7 26 12 0
18 4 17 30 -13 28 -32 40 -56 22 -45 -5 3 -15 -3 -23 -12 -19 -22 -32 -55 -20
-47 5 3 12 1 16 -5 3 -5 -1 -10 -9 -10 -24 0 -30 4 -33 18 -2 18 -13 29 -13
13 0 -7 -4 -9 -10 -6 -5 3 -3 -10 5 -30 15 -34 15 -35 -7 -35 -19 0 -20 -2 -8
-10 10 -6 11 -10 3 -10 -7 0 -13 -8 -13 -17 0 -15 2 -16 10 -3 5 8 10 10 10 4
0 -5 -6 -18 -13 -28 -11 -16 -13 -13 -16 21 -2 21 -4 46 -4 55 -1 9 -5 14 -9
12 -5 -3 -6 -25 -2 -49 5 -41 4 -45 -20 -51 -14 -3 -28 -4 -33 -1 -4 3 -14 -2
-22 -10 -12 -13 -10 -14 10 -12 13 2 30 0 38 -5 8 -5 16 -3 22 5 6 9 9 10 9 2
0 -18 -20 -27 -32 -15 -8 8 -17 8 -30 1 -11 -6 -22 -8 -25 -5 -4 3 -12 1 -19
-5 -7 -6 -14 -6 -18 -1 -3 6 1 12 9 16 8 3 15 16 15 28 0 18 -2 20 -9 8 -6 -8
-8 -17 -5 -21 7 -13 -20 -17 -41 -6 -16 8 -15 5 5 -15 14 -14 32 -27 39 -30
12 -3 12 -6 -2 -11 -9 -3 -23 1 -32 9 -9 10 -15 11 -15 4 0 -7 -7 -10 -15 -6
-21 8 -19 -11 3 -23 13 -8 9 -10 -20 -9 -32 1 -36 3 -25 16 10 13 9 14 -11 3
-20 -11 -21 -14 -7 -27 17 -18 20 -34 5 -34 -5 0 -10 -6 -10 -14 0 -9 -7 -12
-20 -9 -15 4 -19 11 -14 25 4 15 -1 22 -23 30 -29 11 -29 11 -14 44 8 19 19
34 23 34 4 0 8 6 8 13 0 18 66 92 72 81 3 -5 3 -3 1 5 -2 8 2 18 9 23 9 5 6 8
-9 8 -12 0 -29 -9 -37 -21 -14 -21 -43 -18 -30 3 4 7 2 8 -5 4 -8 -6 -9 -12
-2 -20 10 -12 -11 -46 -61 -98 -10 -10 -33 -47 -52 -84 -25 -49 -35 -61 -38
-46 -3 10 -1 27 4 36 6 10 5 16 -2 16 -5 0 -10 -4 -10 -10 0 -5 -7 -10 -15
-10 -14 0 -13 -3 1 -25 16 -24 16 -25 -2 -19 -16 5 -16 4 1 -8 12 -7 19 -21
17 -30 -4 -19 13 -25 23 -8 4 6 11 7 17 4 7 -5 8 -2 3 6 -5 8 -2 17 7 24 15
11 18 17 18 39 0 8 3 9 8 1 4 -6 13 -13 20 -15 10 -3 6 -13 -12 -32 -30 -33
-31 -34 -11 -34 9 0 14 6 11 14 -3 7 1 13 9 13 8 0 15 6 15 13 0 8 4 7 10 -3
9 -13 10 -13 11 0 0 10 3 8 9 -5 6 -14 9 -15 9 -4 1 8 -3 19 -8 25 -13 14 -23
64 -12 64 5 0 12 -13 16 -30 4 -18 13 -30 23 -31 11 0 12 -2 5 -6 -7 -2 -13
-11 -13 -19 0 -9 5 -13 12 -9 7 4 4 -1 -7 -10 -17 -14 -18 -17 -5 -25 11 -7
11 -10 2 -10 -7 0 -10 -6 -7 -12 4 -7 1 -6 -7 2 -7 9 -27 16 -44 17 -27 0 -32
-3 -30 -23 1 -16 7 -24 19 -24 19 0 23 16 5 22 -9 3 -9 6 0 12 15 9 29 -21 16
-34 -5 -5 -19 -11 -31 -13 -11 -1 -28 -9 -37 -16 -22 -18 -33 -6 -15 15 12 15
12 17 -1 12 -8 -2 -16 -17 -18 -32 -4 -33 -25 -43 -58 -27 -18 8 -23 8 -18 0
3 -6 0 -16 -7 -21 -11 -8 -10 -9 3 -4 19 6 34 -9 18 -19 -16 -10 -51 5 -44 18
4 7 2 7 -7 -1 -12 -11 -12 -14 0 -22 8 -4 16 -16 17 -25 1 -9 0 -14 -3 -11 -4
3 -13 0 -21 -7 -13 -10 -15 -8 -9 13 5 22 5 23 -7 8 -18 -24 -29 -23 -16 2 9
16 8 18 -5 14 -28 -11 -17 -60 30 -128 25 -37 45 -69 45 -72 0 -3 -11 -20 -25
-36 -31 -36 -25 -50 8 -20 29 28 33 27 53 -3 15 -24 15 -26 -20 -74 -41 -56
-33 -80 8 -26 33 42 43 44 58 8 6 -16 28 -64 48 -108 21 -44 47 -103 60 -132
l22 -52 -21 -34 c-21 -35 -28 -67 -13 -67 5 0 15 14 23 32 8 17 19 33 25 35 5
2 28 -32 49 -74 21 -43 46 -90 57 -104 16 -25 17 -30 3 -63 -17 -41 -19 -66
-5 -66 6 0 13 14 17 30 7 40 19 46 34 18 12 -24 61 -100 156 -245 l54 -81 -22
-41 c-11 -23 -23 -41 -25 -41 -6 0 -114 150 -178 248 -69 107 -163 268 -218
377 -20 39 -80 157 -134 263 l-99 193 -3 -286 -2 -286 31 -117 c17 -64 33
-124 36 -132 2 -9 -11 -24 -32 -38 -19 -12 -35 -27 -35 -32 0 -15 9 -12 41 11
34 24 44 20 53 -21 8 -44 103 -307 180 -502 36 -92 66 -173 66 -180 -1 -13
-61 -55 -112 -79 -28 -12 -38 -29 -17 -29 6 0 40 16 76 36 36 21 68 33 73 28
4 -5 27 -69 50 -143 23 -73 64 -193 91 -265 27 -72 49 -131 49 -131 -6 0 -230
-173 -230 -177 0 -16 20 -6 98 46 81 55 142 90 146 84 9 -12 78 -180 156 -380
19 -47 39 -93 46 -102 10 -15 89 -16 824 -14 l812 3 -22 28 -22 28 63 -7 c35
-3 66 -8 69 -11 2 -2 -1 -13 -8 -23 -11 -18 -9 -20 13 -20 19 0 29 9 42 35 18
38 21 39 42 26 12 -8 13 -14 3 -35 -11 -24 -10 -26 12 -26 15 0 26 7 29 20 7
28 57 28 57 0 0 -11 5 -20 10 -20 6 0 10 8 10 19 0 23 21 27 171 37 l106 6 6
-31 c11 -54 28 -36 21 23 -5 41 -3 59 11 80 9 14 20 26 24 26 4 0 15 -25 26
-55 l18 -55 -23 -25 c-17 -18 -19 -25 -9 -25 8 0 21 6 28 12 11 10 14 10 18 1
4 -10 216 -13 1014 -13 l1009 0 0 1353 c0 789 -4 1346 -9 1338 -7 -12 -14 -10
-37 8 -37 29 -43 11 -9 -24 31 -30 30 -40 -16 -141 -17 -38 -34 -63 -36 -56
-3 7 -20 23 -38 35 l-33 23 30 69 c16 39 43 106 59 150 17 44 44 97 60 118 21
26 28 44 24 57 -4 11 -11 18 -16 15 -5 -4 -16 0 -24 8 -19 20 -65 11 -58 -12
3 -9 -4 -5 -16 9 -14 17 -21 20 -21 10 0 -12 -3 -11 -11 3 -5 9 -15 17 -22 17
-7 0 -6 -4 3 -10 13 -9 13 -11 0 -20 -8 -5 -19 -9 -25 -9 -5 0 -5 3 2 5 7 3 9
12 6 20 -3 7 -9 11 -14 8 -5 -3 -9 2 -9 11 0 8 -6 18 -14 21 -8 3 -13 11 -10
19 3 7 -2 15 -10 18 -18 7 -22 27 -5 27 5 0 7 -4 4 -10 -3 -5 1 -10 9 -10 9 0
16 -8 16 -17 0 -15 2 -16 10 -3 7 10 5 18 -5 26 -11 8 -12 13 -2 24 10 10 9
12 -6 7 -22 -8 -22 9 0 17 15 6 15 8 3 16 -12 8 -11 10 5 11 11 0 14 3 8 6
-20 7 -15 23 7 23 14 0 18 5 13 18 -4 11 0 10 11 -5 10 -13 24 -23 32 -23 17
0 17 5 3 32 -9 16 -8 23 2 29 11 7 9 9 -6 9 -29 0 -53 47 -50 95 1 22 1 34 -2
27 -3 -6 -9 -9 -15 -6 -6 4 -6 -2 1 -14 17 -32 12 -39 -9 -13 -26 31 -25 50 3
61 21 8 20 9 -7 9 -23 1 -27 5 -23 21 7 26 -10 26 -18 0 -6 -20 -25 -19 -25 1
0 6 4 7 10 4 6 -3 10 -2 10 4 0 5 -6 11 -12 14 -10 3 -10 7 0 19 10 13 10 17
0 21 -9 3 -8 9 6 19 12 9 16 20 11 27 -6 10 -2 10 16 0 15 -7 19 -14 11 -17
-14 -4 -17 -22 -3 -22 22 0 21 36 -1 54 -17 15 -18 18 -5 13 10 -4 22 -7 27
-7 5 0 11 -12 13 -27 3 -22 4 -19 6 11 l1 39 24 -22 c14 -13 22 -29 20 -36 -3
-7 5 -15 17 -18 15 -4 20 -11 15 -23 -5 -12 -2 -15 10 -10 12 5 15 2 10 -9 -3
-9 -2 -13 4 -10 9 6 50 -32 50 -48 0 -5 9 -20 20 -34 15 -20 17 -30 9 -47 -10
-20 -10 -20 5 -2 23 28 20 67 -8 105 -14 18 -22 39 -20 46 3 7 -5 15 -17 18
-13 4 -20 9 -17 12 3 4 -5 18 -18 32 -13 14 -21 29 -18 34 3 5 1 9 -5 9 -13 0
-71 62 -71 75 0 6 3 6 8 -1 4 -6 14 -13 23 -16 13 -5 16 -2 12 12 -6 24 -33
48 -33 30 0 -7 -7 -10 -16 -6 -10 4 -13 2 -8 -7 5 -8 2 -7 -9 2 -10 8 -15 16
-13 18 3 3 -6 16 -20 30 -13 13 -24 33 -24 43 0 12 -5 17 -14 14 -18 -7 -31
27 -14 38 10 6 10 8 -2 8 -8 0 -21 -9 -27 -19 -13 -21 -44 -19 -64 5 -14 17
-5 18 21 2 17 -11 22 -10 30 2 13 19 12 30 0 30 -5 0 -10 -8 -10 -17 -1 -16
-2 -16 -15 1 -8 11 -15 16 -15 10 0 -5 -5 -2 -10 6 -9 13 -11 13 -20 0 -8 -13
-10 -12 -10 4 0 10 8 25 17 32 17 12 16 13 -4 14 -12 0 -24 -6 -26 -12 -3 -8
-6 -6 -6 5 -1 9 4 17 9 17 6 0 10 4 10 10 0 5 -7 7 -15 4 -21 -8 -19 13 3 25
10 6 12 11 5 12 -7 1 -17 3 -23 4 -5 1 -14 3 -19 4 -11 1 -1 51 10 51 5 0 5
-7 2 -17 -4 -11 -3 -14 5 -9 7 4 12 1 12 -6 1 -7 8 -1 16 15 11 20 22 27 44
27 26 0 30 4 30 26 0 14 7 32 15 40 8 9 15 11 15 6 0 -22 41 2 47 27 3 14 21
42 40 61 18 19 33 39 33 45 0 6 -28 11 -66 12 -89 2 -127 11 -120 29 3 7 1 16
-5 19 -5 4 -8 1 -7 -7 2 -9 -6 -12 -27 -9 -40 4 -42 7 -20 31 10 11 15 23 12
27 -4 3 -7 1 -7 -7 0 -7 -15 2 -32 19 -32 31 -271 195 -301 207 -8 3 -20 15
-26 27 l-12 22 5 -22 c2 -13 1 -23 -3 -23 -13 0 -41 36 -34 43 3 4 2 7 -4 7
-5 0 -21 10 -35 23 -14 12 -39 30 -57 39 -17 9 -31 21 -31 27 0 5 16 20 37 32
36 22 37 22 87 5 128 -44 393 -188 556 -303 41 -29 105 -71 141 -93 62 -37
105 -76 128 -118 15 -26 26 -5 12 21 -20 37 -65 87 -79 87 -7 0 -21 9 -32 20
-11 11 -20 18 -20 15 0 -8 -88 53 -112 77 -10 10 -22 18 -28 18 -5 0 -10 5
-10 11 0 7 9 5 24 -4 21 -14 25 -14 30 -2 3 8 11 15 18 14 10 0 10 -2 0 -6
-19 -8 -14 -27 14 -53 21 -21 27 -22 35 -10 8 12 9 11 7 -5 -2 -12 3 -20 15
-21 11 -1 12 0 3 3 -8 2 -12 11 -9 18 4 12 7 12 19 0 8 -7 14 -20 14 -29 0 -8
4 -18 10 -21 6 -4 7 6 3 26 -8 43 18 35 32 -9 5 -18 13 -32 17 -32 4 0 8 -5 8
-10 0 -6 10 -22 23 -36 l23 -24 2 31 c2 28 0 31 -19 26 -15 -4 -19 -2 -15 9 3
8 -1 14 -9 14 -8 0 -15 5 -15 11 0 5 4 8 9 5 5 -4 12 0 14 6 3 8 6 6 6 -4 1
-10 7 -18 14 -18 7 0 13 18 15 48 2 36 0 44 -9 32 -9 -12 -9 -11 -3 5 5 11 10
179 12 373 l3 352 -2560 0 -2561 0 0 -375z m4791 216 c7 11 9 11 9 -3 0 -9 -6
-19 -12 -22 -7 -4 -3 -4 10 -2 14 3 22 -1 22 -11 0 -8 4 -12 9 -8 5 3 16 -2
24 -10 9 -8 28 -16 44 -16 24 -2 25 -2 5 -6 -19 -4 -21 -7 -11 -19 9 -11 15
-12 25 -3 11 9 14 8 14 -5 0 -9 5 -16 11 -16 7 0 9 -9 6 -21 -4 -15 -2 -19 8
-15 9 3 12 0 9 -8 -3 -7 2 -25 10 -41 18 -34 12 -48 -16 -39 -19 6 -20 2 -17
-39 4 -39 2 -44 -15 -41 -14 2 -17 -1 -13 -16 3 -11 1 -20 -4 -20 -5 0 -9 5
-9 11 0 5 -5 7 -11 3 -6 -3 -16 0 -21 7 -7 10 -8 8 -3 -7 3 -14 -1 -26 -12
-35 -15 -12 -16 -12 -10 4 6 16 5 16 -26 1 -17 -9 -35 -21 -38 -26 -4 -6 -9
-6 -13 1 -4 6 -2 11 3 11 6 0 11 4 11 9 0 5 -12 8 -27 5 -15 -3 -29 0 -34 8
-4 7 -11 9 -16 4 -4 -4 0 -12 10 -17 17 -10 24 -30 10 -28 -5 1 -15 1 -23 0
-13 -1 -13 -2 0 -11 9 -6 10 -10 3 -10 -19 0 -27 21 -12 31 11 7 10 9 -3 9
-20 0 -24 15 -8 25 16 10 12 25 -5 19 -18 -7 -20 12 -2 20 6 3 2 3 -10 0 -18
-4 -23 -1 -23 15 0 23 -16 29 -22 9 -5 -13 -48 25 -48 42 0 5 -7 6 -17 3 -12
-5 -14 -3 -8 7 6 10 4 12 -8 7 -9 -3 -18 0 -21 9 -3 9 -11 12 -17 8 -7 -4 -10
-1 -7 7 3 8 -10 34 -29 58 -37 50 -37 69 5 113 27 29 129 58 141 41 9 -13 41
-24 41 -14 0 5 18 11 39 13 22 2 37 0 35 -3 -2 -4 5 -5 16 -2 11 3 23 10 27
16 4 7 8 7 11 -2 4 -11 6 -11 13 0z m-4181 -396 c-14 -8 -32 -14 -40 -14 -8 0
-1 6 15 14 40 18 57 18 25 0z m-192 -78 c14 4 14 3 2 -5 -8 -6 -18 -8 -22 -6
-4 3 -8 1 -8 -4 0 -6 -7 -13 -15 -16 -13 -5 -12 -1 2 18 10 13 19 20 21 16 2
-5 11 -6 20 -3z m4609 -9 c-3 -8 -6 -5 -6 6 -1 11 2 17 5 13 3 -3 4 -12 1 -19z
m58 12 c3 -5 1 -10 -4 -10 -6 0 -11 5 -11 10 0 6 2 10 4 10 3 0 8 -4 11 -10z
m-4728 -6 c-3 -3 -12 -4 -19 -1 -8 3 -5 6 6 6 11 1 17 -2 13 -5z m4503 -3 c0
-5 -7 -11 -14 -14 -10 -4 -13 -1 -9 9 6 15 23 19 23 5z m17 -13 c-3 -8 -6 -5
-6 6 -1 11 2 17 5 13 3 -3 4 -12 1 -19z m-60 -9 c2 -17 -1 -18 -12 -9 -8 7
-12 16 -9 21 9 16 20 10 21 -12z m-442 -7 c-3 -3 -11 0 -18 7 -9 10 -8 11 6 5
10 -3 15 -9 12 -12z m555 8 c0 -5 -4 -10 -10 -10 -5 0 -10 5 -10 10 0 6 5 10
10 10 6 0 10 -4 10 -10z m-4610 -20 c0 -5 -14 -17 -31 -26 -29 -15 -33 -15
-48 2 -15 17 -15 17 1 5 18 -13 42 -6 33 10 -3 5 0 6 8 3 8 -3 18 -1 22 5 8
14 15 14 15 1z m4710 -10 c0 -14 28 -12 32 2 3 7 7 5 11 -6 6 -15 2 -17 -25
-14 -28 3 -55 28 -29 28 6 0 11 -4 11 -10z m-585 -10 c4 -6 -5 -10 -20 -10
-15 0 -24 4 -20 10 3 6 12 10 20 10 8 0 17 -4 20 -10z m-4339 -27 c-3 -3 5
-14 17 -24 l22 -19 -24 -20 c-13 -11 -28 -20 -35 -20 -6 0 -2 6 9 12 39 22 41
55 4 45 -12 -3 -19 0 -19 8 0 7 -6 15 -12 18 -7 2 0 4 15 4 15 0 26 -2 23 -4z
m4357 -5 c9 8 21 5 45 -10 41 -26 40 -29 -5 -13 -23 8 -40 9 -44 4 -3 -5 -14
1 -25 13 -15 18 -15 20 -1 9 12 -10 21 -10 30 -3z m-4226 -4 c-3 -3 -12 -4
-19 -1 -8 3 -5 6 6 6 11 1 17 -2 13 -5z m-167 -66 c0 -4 -4 -8 -9 -8 -6 0 -12
4 -15 8 -3 5 1 9 9 9 8 0 15 -4 15 -9z m1910 -19 c0 -86 76 -307 180 -527 55
-115 161 -283 167 -265 2 6 -12 65 -31 130 -19 65 -39 145 -44 178 -9 55 -6
484 2 493 2 2 12 -21 21 -50 65 -199 274 -544 439 -723 10 -11 30 -36 44 -55
47 -62 195 -230 203 -230 8 0 15 30 24 110 4 30 13 93 22 140 19 109 28 476
15 600 -6 52 -8 97 -6 99 2 2 14 -9 26 -24 12 -16 46 -56 76 -89 72 -83 193
-264 241 -363 35 -70 99 -270 89 -277 -2 -1 -43 -27 -93 -56 -122 -73 -383
-271 -384 -292 -2 -18 19 -4 104 68 141 119 365 268 380 252 5 -4 36 -155 50
-240 3 -21 9 -38 13 -38 8 0 63 190 83 285 7 33 19 64 26 68 18 11 16 27 -3
27 -14 0 -16 8 -10 46 3 26 6 57 6 70 0 30 12 31 26 1 6 -12 24 -44 39 -72 57
-102 113 -223 143 -305 43 -121 50 -146 67 -235 14 -71 19 -126 29 -338 2 -37
7 -68 12 -68 9 -1 60 114 91 205 l17 51 9 -40 c10 -44 3 -225 -13 -338 -6 -39
-13 -90 -17 -112 -3 -22 -6 -47 -7 -55 -2 -8 -6 -25 -10 -36 -3 -12 -9 -35
-11 -50 -7 -45 -31 -127 -45 -154 -7 -14 -12 -26 -11 -28 4 -4 -28 -115 -38
-133 -5 -8 -21 -46 -36 -84 -87 -218 -209 -388 -360 -503 -33 -26 -64 -50 -70
-55 -139 -112 -336 -217 -545 -289 -122 -42 -128 -43 -250 -42 -119 0 -131 2
-245 41 -66 22 -156 57 -200 78 -44 20 -117 55 -162 76 -127 59 -280 163 -364
248 -70 71 -179 217 -179 241 0 5 -20 48 -45 93 -55 103 -76 160 -127 357 -82
315 -126 610 -114 769 3 47 8 86 10 89 3 2 10 -16 16 -39 49 -193 132 -419
153 -419 5 0 7 10 3 23 -42 153 -29 472 27 678 37 132 69 235 78 244 5 5 9 17
9 27 0 10 8 37 19 61 10 23 31 74 46 112 16 39 39 94 51 122 13 29 21 61 18
70 -4 13 -3 15 4 5 8 -13 43 43 96 155 6 13 14 23 19 23 4 0 7 7 7 15 0 12
114 189 144 222 6 6 22 27 36 46 26 37 40 39 40 6z m2635 -7 c-3 -3 -11 0 -18
7 -9 10 -8 11 6 5 10 -3 15 -9 12 -12z m-3882 -23 c-8 -8 -13 -7 -18 2 -5 8
-4 10 3 5 7 -4 12 -2 12 5 0 7 3 9 7 6 4 -4 2 -12 -4 -18z m-79 -115 c4 -10 1
-14 -6 -12 -15 5 -23 28 -10 28 5 0 13 -7 16 -16z m-54 -54 c0 -5 -4 -10 -10
-10 -5 0 -10 5 -10 10 0 6 5 10 10 10 6 0 10 -4 10 -10z m15 -20 c-3 -5 -12
-10 -18 -10 -7 0 -6 4 3 10 19 12 23 12 15 0z m4225 6 c0 -3 -4 -8 -10 -11 -5
-3 -10 -1 -10 4 0 6 5 11 10 11 6 0 10 -2 10 -4z m-4259 -50 c-6 -8 -21 -12
-32 -9 -15 4 -17 9 -9 17 8 8 13 7 20 -4 8 -12 10 -10 10 10 0 18 3 21 12 12
8 -8 8 -15 -1 -26z m4165 -21 c-8 -8 -21 -15 -28 -15 -8 1 -6 6 6 15 26 20 42
19 22 0z m-4216 -39 c0 -2 -8 -10 -17 -17 -16 -13 -17 -12 -4 4 13 16 21 21
21 13z m4115 -65 c-3 -5 0 -13 6 -17 8 -4 7 -9 -2 -15 -12 -8 -12 -11 1 -18 8
-6 12 -12 10 -14 -3 -3 -21 9 -40 25 -19 17 -25 25 -13 19 29 -15 38 -14 24 3
-9 11 -9 15 1 19 19 8 20 8 13 -2z m185 -191 c0 -5 -2 -10 -4 -10 -3 0 -8 5
-11 10 -3 6 -1 10 4 10 6 0 11 -4 11 -10z m-4095 -100 c3 -5 1 -10 -4 -10 -6
0 -11 5 -11 10 0 6 2 10 4 10 3 0 8 -4 11 -10z m-115 -10 c0 -5 -4 -10 -10
-10 -5 0 -10 5 -10 10 0 6 5 10 10 10 6 0 10 -4 10 -10z m4280 -35 c7 -9 8
-15 2 -15 -5 0 -12 7 -16 15 -3 8 -4 15 -2 15 2 0 9 -7 16 -15z m-130 -74 c0
-8 8 -24 17 -35 15 -17 13 -17 -8 2 -16 14 -26 34 -26 49 0 18 2 21 8 12 5 -8
9 -20 9 -28z m-4087 -56 c-3 -9 -8 -14 -10 -11 -3 3 -2 9 2 15 9 16 15 13 8
-4z m4057 -10 c0 -8 -4 -17 -10 -20 -6 -4 -7 1 -3 11 4 11 3 15 -5 10 -6 -3
-13 -3 -16 2 -2 4 4 9 15 9 10 1 19 -4 19 -12z m80 -7 c0 -18 -2 -20 -9 -8 -6
8 -7 18 -5 22 9 14 14 9 14 -14z m-30 -43 c0 -8 -2 -15 -4 -15 -2 0 -6 7 -10
15 -3 8 -1 15 4 15 6 0 10 -7 10 -15z m54 -61 c5 -14 4 -15 -9 -4 -17 14 -19
20 -6 20 5 0 12 -7 15 -16z m-4314 -19 c-7 -8 -17 -15 -23 -15 -6 0 -2 7 9 15
25 19 30 19 14 0z m-260 -39 c0 -2 -7 -7 -16 -10 -8 -3 -12 -2 -9 4 6 10 25
14 25 6z m165 -6 c-4 -6 -11 -8 -16 -5 -5 4 -9 1 -9 -4 0 -6 6 -11 13 -12 6 0
1 -5 -12 -10 -13 -5 -26 -7 -29 -4 -3 3 0 5 7 5 7 0 9 5 6 10 -9 15 4 30 26
30 11 0 17 -5 14 -10z m4480 -30 c3 -5 1 -10 -4 -10 -6 0 -11 5 -11 10 0 6 2
10 4 10 3 0 8 -4 11 -10z m-17 -64 c-7 -8 -15 -12 -17 -11 -5 6 10 25 20 25 5
0 4 -6 -3 -14z m-68 -126 c0 6 6 10 13 7 6 -2 11 -10 10 -16 -2 -6 1 -11 6
-11 5 0 11 -7 14 -15 5 -11 0 -11 -28 3 -19 9 -37 23 -40 31 -4 11 -3 12 10 1
11 -9 15 -10 15 0z m69 -98 c-1 -15 -2 -15 -6 1 -2 9 -9 14 -15 11 -7 -4 -8
-2 -4 5 10 15 26 4 25 -17z m165 -16 c-3 -9 -10 -13 -15 -10 -5 3 -3 11 4 19
15 16 19 13 11 -9z m46 -1 c0 -2 -7 -8 -15 -15 -12 -10 -15 -10 -15 2 0 8 7
15 15 15 8 0 15 -1 15 -2z m-63 -40 c0 -8 -4 -12 -9 -9 -5 3 -6 10 -3 15 9 13
12 11 12 -6z m-4027 -202 c22 -19 40 -39 40 -44 0 -12 96 -215 159 -339 49
-95 74 -164 63 -174 -3 -3 -11 3 -19 14 -8 11 -20 20 -26 20 -7 0 -27 13 -45
28 -29 24 -34 36 -41 92 -11 80 -74 207 -144 286 -60 67 -80 79 -108 64 -30
-17 -49 -71 -49 -143 0 -132 38 -240 115 -325 47 -52 71 -66 190 -112 44 -17
101 -45 127 -61 41 -27 49 -38 68 -95 12 -35 20 -68 18 -73 -5 -16 -144 35
-219 79 -124 74 -267 232 -319 355 -26 62 -50 181 -50 250 0 71 30 180 60 218
11 14 30 27 43 29 29 5 89 -24 137 -69z m3392 10 c36 -39 48 -66 52 -116 12
-155 -83 -408 -214 -570 -82 -101 -139 -136 -239 -144 -47 -4 -71 -2 -71 5 0
6 9 30 19 55 22 52 60 77 159 106 65 20 141 64 170 100 28 36 62 113 77 177 9
38 23 93 32 121 26 92 0 173 -57 173 -46 0 -87 -38 -171 -159 -84 -120 -94
-161 -63 -263 3 -11 -9 -26 -40 -47 l-45 -31 5 37 c26 184 101 384 186 490 75
95 150 119 200 66z m585 -241 c3 -14 -3 -39 -18 -67 -20 -37 -25 -42 -33 -27
-5 9 -20 29 -33 43 l-24 26 22 46 22 45 29 -21 c16 -12 31 -32 35 -45z m-83
-92 l26 -40 -65 -131 c-65 -132 -122 -229 -134 -229 -3 0 -17 16 -31 36 l-24
37 54 101 c30 55 73 138 95 183 22 46 43 83 46 83 4 0 18 -18 33 -40z m-199
-410 c10 -19 10 -31 3 -45 -25 -47 -191 -295 -198 -295 -4 0 -15 18 -25 39
l-17 39 77 129 c111 183 114 186 132 172 8 -7 20 -24 28 -39z m-3981 -304 c26
-34 26 -36 10 -75 -9 -23 -20 -41 -24 -41 -13 0 -60 60 -60 76 0 20 28 74 39
74 5 0 20 -16 35 -34z m3756 -46 c11 -26 9 -33 -30 -84 -23 -31 -46 -53 -51
-50 -5 3 -16 21 -24 41 -15 36 -15 36 27 88 46 56 56 57 78 5z m-3685 -40 c13
-14 16 -29 12 -55 -6 -38 8 -58 18 -25 3 11 9 20 13 20 4 0 37 -28 73 -63 37
-35 88 -81 115 -103 27 -21 51 -41 54 -44 3 -3 36 -30 73 -59 67 -53 68 -55
62 -90 -4 -20 -8 -38 -10 -40 -2 -2 -35 20 -72 50 -284 222 -393 320 -393 355
0 26 20 74 30 74 4 0 15 -9 25 -20z m3570 -91 c16 -35 17 -44 5 -62 -25 -41
-83 -106 -91 -102 -4 3 -10 21 -13 40 -11 59 -28 41 -21 -22 l7 -58 -115 -123
c-63 -68 -144 -149 -179 -179 -69 -61 -217 -173 -229 -173 -3 0 -9 10 -12 21
-5 18 29 56 195 218 111 108 231 234 267 281 117 150 156 199 162 199 3 1 14
-17 24 -40z m-3079 -384 c0 -19 -2 -35 -6 -35 -17 0 -30 28 -30 64 0 38 1 39
17 23 10 -9 18 -33 19 -52z m386 -241 c-2 -19 -8 -34 -13 -34 -14 0 -239 136
-295 179 -41 31 -49 43 -52 74 l-3 37 183 -111 184 -111 -4 -34z m69 -1 c28
-16 47 -62 34 -82 -3 -7 -18 -4 -39 6 -29 13 -35 22 -38 54 -4 44 1 46 43 22z
m117 -61 c12 -8 22 -23 22 -33 0 -21 11 -24 27 -8 7 7 33 -1 89 -29 44 -22
116 -52 162 -67 78 -27 82 -30 80 -57 -1 -15 -5 -28 -8 -28 -4 0 -35 12 -71
26 -35 14 -106 41 -157 59 -51 19 -116 46 -145 62 -47 25 -52 32 -55 65 -3 41
5 42 56 10z m1832 -1 c0 -25 -10 -36 -67 -75 l-68 -45 -3 27 c-4 27 2 34 84
95 47 34 54 34 54 -2z m-170 -116 c0 -18 -10 -31 -32 -45 -42 -25 -48 -25 -48
3 0 15 12 29 38 44 20 12 38 22 40 23 1 0 2 -11 2 -25z m-110 -70 c0 -20 -10
-30 -51 -50 l-50 -26 3 28 c2 20 14 34 43 50 51 29 55 28 55 -2z m-1074 -10
c35 -12 39 -16 36 -42 -2 -15 -5 -29 -6 -30 -1 -1 -25 5 -54 14 -36 12 -52 22
-52 34 0 10 -3 25 -6 34 -7 18 7 16 82 -10z m149 -74 c11 -33 25 -32 25 2 0
14 5 17 17 13 9 -4 54 -16 100 -28 65 -16 83 -24 83 -38 0 -42 -23 -43 -168
-4 -146 38 -151 41 -152 95 0 15 5 16 42 5 33 -10 44 -19 53 -45z m791 22 c-4
-30 -181 -108 -289 -128 -36 -7 -39 -6 -35 16 3 20 16 27 93 50 50 14 117 38
150 52 74 30 84 32 81 10z m-464 -7 l34 -15 -21 -108 c-21 -107 -21 -108 -51
-110 -16 -1 -23 0 -16 3 18 8 15 22 -8 29 -11 4 -20 15 -20 26 0 18 4 20 30
14 17 -4 30 -2 30 3 0 5 -13 15 -30 22 -31 13 -36 25 -21 48 6 10 19 11 46 6
47 -9 40 9 -10 26 -40 13 -39 11 -23 45 13 29 15 30 60 11z m156 -29 c10 -8
10 -13 1 -21 -8 -8 -13 -8 -16 2 -9 24 -23 11 -23 -22 0 -32 -3 -35 -32 -38
l-33 -4 28 -12 c37 -16 39 -55 2 -46 -30 7 -34 -12 -5 -21 25 -8 25 -16 -1
-49 -17 -21 -24 -24 -40 -15 -22 11 -21 40 8 171 12 55 18 68 36 71 26 5 57
-2 75 -16z m-314 -300 c-25 -56 -48 -104 -50 -106 -3 -3 -11 2 -20 10 -13 13
-13 20 -2 45 16 39 16 39 33 24 12 -10 15 -10 15 2 0 8 -5 19 -12 26 -9 9 -2
32 33 99 l44 88 3 -43 c3 -33 -7 -64 -44 -145z m335 84 c33 -79 33 -80 15
-110 -23 -38 -32 -39 -40 -3 -3 15 -10 38 -15 52 -15 43 -16 140 -1 140 5 0
23 -36 41 -79z m121 -201 c0 -5 -4 -10 -10 -10 -5 0 -10 5 -10 10 0 6 5 10 10
10 6 0 10 -4 10 -10z"/>
<path d="M4960 4730 c0 -5 5 -10 11 -10 5 0 7 5 4 10 -3 6 -8 10 -11 10 -2 0
-4 -4 -4 -10z"/>
<path d="M1660 3443 c0 -4 21 -16 48 -26 151 -58 348 -174 463 -273 31 -27 81
-70 112 -95 31 -26 54 -49 51 -52 -3 -3 -14 3 -25 14 -10 10 -29 19 -40 19
-19 0 -20 2 -8 17 12 15 12 16 -4 10 -10 -4 -16 -3 -13 1 3 4 -4 13 -15 20
-11 7 -19 8 -19 2 0 -5 -5 -10 -11 -10 -6 0 -8 8 -4 19 5 16 2 18 -15 14 -21
-5 -21 -6 -3 -27 11 -11 25 -33 33 -48 7 -16 17 -28 22 -28 4 0 8 -5 8 -10 0
-6 11 -28 25 -50 27 -42 52 -109 67 -175 10 -47 10 -47 6 -104 -3 -29 1 -45 9
-48 15 -6 18 -33 4 -33 -5 0 -12 6 -14 13 -3 7 -6 5 -6 -5 -1 -11 6 -18 17
-18 15 -1 15 -2 -2 -15 -11 -8 -14 -15 -8 -15 7 0 12 -5 12 -11 0 -5 -4 -8 -9
-5 -10 7 -26 -72 -17 -81 3 -4 6 4 6 16 0 12 4 20 9 17 5 -4 7 4 5 16 -2 13
-2 17 2 11 3 -7 15 -13 27 -14 12 0 16 -3 9 -6 -6 -2 -10 -9 -6 -14 3 -5 2 -9
-3 -8 -19 3 -33 -2 -33 -12 0 -5 5 -7 12 -3 8 5 9 0 6 -14 -4 -12 -2 -22 4
-22 5 0 6 -5 2 -12 -5 -8 3 -9 27 -5 19 3 28 3 22 0 -7 -2 -13 -12 -13 -20 0
-10 -6 -14 -20 -10 -41 11 -31 -32 21 -84 20 -20 45 -27 34 -9 -3 6 -2 10 3
10 6 0 12 -7 16 -15 3 -10 -1 -15 -12 -15 -14 0 -14 -2 -3 -9 8 -5 20 -7 28
-4 9 3 11 0 7 -10 -6 -17 29 -36 102 -56 56 -15 57 -15 51 18 -6 30 5 48 58
90 41 32 22 38 -25 7 -46 -30 -50 -31 -50 -12 0 8 12 23 27 34 16 11 25 23 21
27 -4 4 -21 -3 -38 -15 -41 -29 -54 -16 -16 17 16 13 30 36 32 50 3 33 -16 54
-39 42 -22 -13 -25 4 -30 166 -3 72 -10 144 -17 160 -6 17 -12 44 -12 62 0 24
-12 44 -56 90 -76 78 -108 99 -130 81 -14 -11 -15 -11 -9 6 20 53 -332 311
-558 409 -96 42 -125 51 -125 40z m609 -440 c1 21 8 22 27 2 9 -8 12 -15 8
-15 -4 0 0 -6 9 -12 15 -11 13 -13 -15 -15 -18 0 -27 1 -20 4 20 8 14 22 -8
16 -16 -4 -20 -1 -19 18 0 22 1 23 9 4 7 -17 9 -17 9 -2z m108 -39 c-3 -3 -12
-4 -19 -1 -8 3 -5 6 6 6 11 1 17 -2 13 -5z m23 -30 c0 -8 -4 -12 -10 -9 -5 3
-10 10 -10 16 0 5 5 9 10 9 6 0 10 -7 10 -16z m-61 -41 c2 -2 -5 -3 -16 -3
-11 0 -20 7 -20 15 0 12 3 12 16 3 9 -7 18 -14 20 -15z m-2 -60 c-3 -10 -5 -2
-5 17 0 19 2 27 5 18 2 -10 2 -26 0 -35z m11 -48 c-3 -3 -9 2 -12 12 -6 14 -5
15 5 6 7 -7 10 -15 7 -18z m12 -25 c0 -5 -4 -10 -10 -10 -5 0 -10 5 -10 10 0
6 5 10 10 10 6 0 10 -4 10 -10z m43 -7 c-7 -2 -13 -12 -13 -20 0 -9 -3 -14 -6
-10 -10 10 4 37 18 36 10 0 10 -2 1 -6z m117 -13 c0 -5 -4 -10 -10 -10 -5 0
-10 5 -10 10 0 6 5 10 10 10 6 0 10 -4 10 -10z m20 -40 c0 -26 -2 -29 -14 -18
-8 7 -10 15 -5 16 5 2 9 10 9 18 0 8 2 14 5 14 3 0 5 -14 5 -30z m-80 -9 c0
-5 -7 -12 -16 -15 -14 -5 -15 -4 -4 9 14 17 20 19 20 6z m-40 -5 c0 -2 -7 -7
-16 -10 -8 -3 -12 -2 -9 4 6 10 25 14 25 6z m-50 -10 c0 -3 -4 -8 -10 -11 -5
-3 -10 -1 -10 4 0 6 5 11 10 11 6 0 10 -2 10 -4z m49 -29 c8 -10 7 -14 -2 -14
-8 0 -14 6 -14 14 0 7 1 13 2 13 2 0 8 -6 14 -13z m51 3 c-8 -5 -19 -10 -25
-10 -5 0 -3 5 5 10 8 5 20 10 25 10 6 0 3 -5 -5 -10z m72 -50 c5 -33 -6 -28
-17 8 -3 12 -2 22 3 22 5 0 12 -14 14 -30z m-134 -33 c2 -11 -3 -17 -15 -16
-11 0 -13 3 -5 6 10 4 10 8 0 21 -11 13 -11 14 2 10 8 -2 16 -12 18 -21z m-21
-63 c-3 -3 -12 -4 -19 -1 -8 3 -5 6 6 6 11 1 17 -2 13 -5z m120 -16 c-3 -8 -6
-5 -6 6 -1 11 2 17 5 13 3 -3 4 -12 1 -19z m-77 2 c0 -5 -5 -10 -11 -10 -5 0
-7 5 -4 10 3 6 8 10 11 10 2 0 4 -4 4 -10z m120 -11 c0 -6 -4 -7 -10 -4 -5 3
-10 11 -10 16 0 6 5 7 10 4 6 -3 10 -11 10 -16z m-63 -14 c0 -8 -4 -12 -9 -9
-5 3 -6 10 -3 15 9 13 12 11 12 -6z"/>
<path d="M3137 3130 c-16 -15 -16 -18 -2 -30 9 -7 18 -10 22 -6 3 3 1 6 -6 6
-9 0 -9 5 -1 21 15 27 10 31 -13 9z"/>
<path d="M3177 3143 c-4 -3 -7 -11 -7 -17 0 -6 5 -5 12 2 6 6 9 14 7 17 -3 3
-9 2 -12 -2z"/>
<path d="M2142 3131 c4 -13 18 -16 19 -4 0 4 -5 9 -11 12 -7 2 -11 -2 -8 -8z"/>
<path d="M3045 3086 c-19 -14 -19 -15 8 -27 31 -14 54 -1 44 25 -8 20 -27 20
-52 2z m42 -12 c-3 -3 -12 -4 -19 -1 -8 3 -5 6 6 6 11 1 17 -2 13 -5z"/>
<path d="M1799 3060 c-121 -21 -248 -121 -307 -241 -29 -60 -33 -76 -33 -154
0 -49 4 -92 10 -98 8 -8 11 6 11 46 0 120 61 274 127 323 56 42 117 66 197 79
162 26 294 -25 361 -140 28 -48 75 -178 75 -209 0 -12 5 -28 11 -36 23 -34 -9
188 -36 245 -29 62 -117 138 -191 167 -50 20 -164 29 -225 18z"/>
<path d="M3330 3056 c-77 -17 -128 -46 -181 -103 -53 -57 -65 -76 -85 -141
-16 -54 -19 -158 -4 -167 6 -4 10 21 10 67 1 136 93 261 231 313 36 13 70 16
150 13 156 -5 228 -43 301 -158 32 -51 68 -157 68 -202 0 -16 4 -27 9 -23 37
23 -55 263 -124 323 -89 79 -236 109 -375 78z"/>
<path d="M2992 3053 c-6 -2 -10 -9 -7 -13 3 -5 12 -7 20 -3 8 3 15 0 15 -6 0
-14 -48 -34 -61 -26 -5 4 -6 -1 -3 -9 7 -19 16 -20 33 -3 11 10 13 9 8 -5 -4
-12 -1 -18 8 -18 14 0 19 11 16 38 -1 6 2 12 7 12 14 0 21 -37 10 -48 -6 -6
-5 -12 3 -17 8 -5 10 -4 5 3 -4 7 -1 12 7 12 16 0 70 71 60 79 -3 4 -8 0 -10
-6 -6 -18 -51 -16 -69 2 -16 16 -21 17 -42 8z m78 -49 c0 -8 -4 -12 -10 -9 -5
3 -10 10 -10 16 0 5 5 9 10 9 6 0 10 -7 10 -16z"/>
<path d="M2928 2976 c-10 -7 -18 -19 -18 -27 0 -8 6 -6 15 7 15 19 15 19 30
-1 10 -12 12 -21 5 -23 -5 -2 -10 -7 -10 -11 0 -9 77 -8 86 1 10 11 -22 38
-48 40 -13 2 -27 8 -33 15 -8 9 -14 9 -27 -1z m66 -31 c3 -8 1 -15 -3 -15 -5
0 -11 7 -15 15 -3 8 -1 15 3 15 5 0 11 -7 15 -15z"/>
<path d="M1843 2759 c-41 -12 -83 -62 -83 -100 0 -19 12 -42 36 -69 34 -37 40
-40 88 -40 97 1 148 86 95 161 -33 46 -81 63 -136 48z"/>
<path d="M3363 2745 c-45 -19 -67 -57 -60 -103 9 -51 46 -82 101 -82 111 0
147 123 54 180 -39 23 -52 24 -95 5z"/>
<path d="M3770 2480 c-29 -71 -165 -146 -290 -160 -149 -17 -289 38 -357 141
-35 53 -42 42 -10 -14 51 -86 186 -147 328 -147 86 0 152 20 243 72 66 38 144
138 107 138 -5 0 -14 -14 -21 -30z"/>
<path d="M2205 2461 c-16 -50 -152 -136 -245 -156 -56 -12 -72 -27 -21 -20 59
8 147 40 193 70 36 24 98 98 98 117 0 16 -19 8 -25 -11z"/>
<path d="M1510 2454 c0 -4 17 -27 37 -52 26 -31 58 -55 107 -78 77 -36 154
-55 142 -35 -4 6 -16 11 -26 11 -51 0 -136 45 -193 102 -58 57 -67 64 -67 52z"/>
<path d="M2320 2419 c0 -8 7 -24 16 -35 14 -18 15 -18 8 6 -8 31 -24 50 -24
29z"/>
<path d="M3754 2356 c-28 -29 -63 -62 -79 -72 -26 -17 -28 -17 -40 -1 -18 25
-39 22 -25 -3 10 -18 7 -22 -24 -35 -19 -8 -67 -20 -107 -27 l-71 -12 -25 29
c-24 30 -24 30 -21 5 3 -23 0 -25 -32 -22 -19 2 -48 10 -64 18 -34 16 -46 18
-46 5 0 -11 64 -37 116 -47 21 -4 42 -12 47 -18 5 -8 9 -8 15 1 4 7 28 15 52
18 25 3 76 14 113 23 59 14 69 14 77 2 7 -11 11 -9 18 10 5 14 30 39 54 57 42
30 106 108 96 118 -2 2 -27 -20 -54 -49z"/>
<path d="M2707 2243 c-39 -44 -20 -54 24 -12 26 25 28 29 12 29 -11 0 -27 -8
-36 -17z"/>
<path d="M3770 2225 c0 -38 -236 -105 -515 -144 -235 -34 -482 -47 -810 -44
-540 5 -854 44 -932 116 -13 11 -26 18 -29 14 -15 -14 17 -150 59 -259 39
-100 114 -237 161 -295 147 -182 142 -177 281 -285 172 -135 367 -215 546
-225 146 -9 358 16 495 57 216 65 454 252 549 431 102 191 184 411 206 551 5
35 12 71 15 81 4 11 0 17 -10 17 -9 0 -16 -7 -16 -15z m-20 -107 c-31 -131
-34 -138 -69 -161 l-34 -21 6 37 c3 20 2 39 -3 42 -5 3 -12 -12 -16 -34 -9
-57 -36 -95 -85 -119 -24 -12 -44 -20 -46 -18 -2 2 3 37 12 77 18 87 17 79 6
79 -4 0 -16 -30 -25 -67 -11 -46 -25 -77 -44 -95 -41 -40 -209 -87 -452 -127
-282 -46 -662 -41 -940 14 -47 9 -105 20 -129 25 -63 11 -83 45 -97 168 -4 29
-11 55 -15 58 -12 7 -11 -27 5 -114 7 -40 10 -74 8 -77 -9 -8 -108 35 -124 55
-9 11 -20 45 -23 75 -4 30 -12 55 -17 55 -10 0 -3 -74 9 -106 10 -27 -16 -13
-71 36 -34 32 -61 67 -71 94 -17 43 -13 86 6 86 6 0 8 4 5 9 -3 4 13 4 37 0
96 -20 303 -47 480 -63 139 -13 694 -8 917 9 291 20 317 24 603 87 50 11 59
10 67 -2 8 -12 14 -10 37 11 30 28 66 50 71 44 3 -2 -1 -28 -8 -57z m-2233
-20 c-3 -8 -6 -5 -6 6 -1 11 2 17 5 13 3 -3 4 -12 1 -19z m1848 -438 c11 -4
29 -18 40 -30 l20 -23 -25 6 c-14 4 -37 7 -51 7 -18 0 -29 8 -37 25 -7 14 -12
28 -12 31 0 5 24 -1 65 -16z m-1317 -7 c-29 -60 -32 -63 -63 -63 -17 0 -40 -7
-51 -15 -18 -14 -16 -15 26 -13 42 3 45 1 48 -24 2 -20 -1 -26 -10 -23 -18 7
-71 -9 -75 -22 -3 -7 11 -9 40 -6 39 5 45 2 62 -23 15 -23 16 -33 6 -59 -13
-38 -14 -55 -2 -55 5 0 14 14 20 30 5 17 14 30 20 30 5 0 32 -14 59 -30 149
-94 424 -133 737 -106 176 15 337 71 418 145 l27 25 12 -32 c7 -18 16 -32 20
-32 14 0 9 40 -9 67 -16 24 -16 26 2 39 25 18 44 18 67 -3 22 -19 37 -9 22 15
-7 10 -27 18 -48 20 -35 3 -37 5 -34 35 3 27 7 32 33 35 46 3 77 -26 77 -73 0
-37 -7 -46 -98 -135 -195 -188 -400 -258 -718 -247 -189 7 -264 24 -436 98
-154 68 -320 189 -320 235 0 41 33 123 59 147 33 31 120 63 109 40z m649 -50
c4 7 9 4 14 -9 7 -17 8 -17 8 -1 1 17 41 26 41 9 0 -5 7 -9 15 -9 8 0 15 4 15
8 0 4 8 6 18 4 68 -14 71 -15 66 -33 -5 -16 -5 -16 8 0 8 9 23 15 34 13 10 -2
24 -4 31 -4 7 -1 10 -8 6 -18 -5 -16 -4 -16 9 1 13 16 16 17 28 4 8 -8 23 -13
35 -11 26 6 102 -29 139 -62 20 -18 27 -33 24 -50 -3 -16 -1 -22 8 -18 8 3 12
-3 11 -16 -1 -14 -18 -28 -61 -47 -133 -59 -291 -82 -483 -69 -91 6 -104 9
-98 24 5 13 4 14 -6 4 -17 -17 -54 -16 -147 2 -100 21 -272 78 -272 92 0 12
36 40 46 36 8 -3 14 1 14 10 0 8 6 20 14 26 11 10 17 8 25 -6 9 -13 11 -14 10
-3 -1 8 -1 20 0 26 2 18 121 57 206 67 17 2 37 7 45 10 31 13 136 23 162 16
17 -5 30 -3 35 4z"/>
<path d="M2370 1519 c0 -5 -4 -7 -10 -4 -5 3 -10 1 -10 -4 0 -6 9 -11 20 -11
13 0 18 5 14 15 -7 17 -14 20 -14 4z"/>
<path d="M2291 1494 c0 -11 3 -14 6 -6 3 7 2 16 -1 19 -3 4 -6 -2 -5 -13z"/>
<path d="M3055 1500 c3 -5 10 -10 16 -10 5 0 9 5 9 10 0 6 -7 10 -16 10 -8 0
-12 -4 -9 -10z"/>
<path d="M3170 1450 c0 -5 -13 -8 -30 -6 -16 2 -27 -1 -24 -6 3 -5 13 -7 22
-6 11 2 16 -3 14 -12 -1 -10 2 -9 13 4 15 20 20 36 10 36 -3 0 -5 -4 -5 -10z"/>
<path d="M3164 1394 c-18 -14 -18 -15 4 -4 12 6 22 13 22 15 0 8 -5 6 -26 -11z"/>
<path d="M2395 1359 c-4 -6 -5 -12 -2 -15 2 -3 7 2 10 11 7 17 1 20 -8 4z"/>
<path d="M2478 1343 c7 -3 16 -2 19 1 4 3 -2 6 -13 5 -11 0 -14 -3 -6 -6z"/>
<path d="M3851 2191 c-9 -15 -7 -23 5 -36 19 -19 32 -10 36 25 4 31 -26 39
-41 11z m20 -24 c-8 -8 -11 -7 -11 4 0 20 13 34 18 19 3 -7 -1 -17 -7 -23z"/>
<path d="M3818 2103 c-11 -40 41 -55 56 -17 4 10 -2 14 -18 14 -14 0 -26 6
-28 12 -3 7 -7 3 -10 -9z"/>
<path d="M2446 1052 c-8 -14 142 -55 219 -60 55 -3 95 2 183 23 126 32 150 52
45 39 -87 -10 -323 -11 -390 -1 -28 4 -54 4 -57 -1z"/>
<path d="M4360 4520 c8 -5 22 -9 30 -9 10 0 8 3 -5 9 -27 12 -43 12 -25 0z"/>
<path d="M4515 4430 c3 -5 11 -10 16 -10 6 0 7 5 4 10 -3 6 -11 10 -16 10 -6
0 -7 -4 -4 -10z"/>
<path d="M595 4379 c-159 -81 -364 -210 -405 -255 l-25 -27 25 7 c14 4 30 8
37 8 7 1 10 5 7 10 -3 4 6 12 20 18 14 5 26 13 26 18 0 16 107 73 126 66 14
-4 16 -3 5 4 -17 13 30 44 182 119 59 29 107 55 107 57 0 18 -40 8 -105 -25z"/>
<path d="M636 4327 c3 -10 9 -15 12 -12 3 3 0 11 -7 18 -10 9 -11 8 -5 -6z"/>
<path d="M644 4285 c-16 -14 -23 -25 -16 -25 6 0 12 -7 12 -15 0 -12 4 -13 18
-4 11 7 19 23 19 40 0 16 -1 29 -2 29 -1 0 -15 -11 -31 -25z m20 -26 c-3 -5
-10 -7 -15 -3 -5 3 -7 10 -3 15 3 5 10 7 15 3 5 -3 7 -10 3 -15z"/>
<path d="M478 4273 c7 -3 16 -2 19 1 4 3 -2 6 -13 5 -11 0 -14 -3 -6 -6z"/>
<path d="M4690 4260 c-9 -6 -10 -10 -3 -10 6 0 15 5 18 10 8 12 4 12 -15 0z"/>
<path d="M541 4214 c0 -11 3 -14 6 -6 3 7 2 16 -1 19 -3 4 -6 -2 -5 -13z"/>
<path d="M4905 4119 c-4 -6 -5 -12 -2 -15 2 -3 7 2 10 11 7 17 1 20 -8 4z"/>
<path d="M4950 4092 c0 -5 16 -25 36 -46 19 -20 33 -40 30 -45 -3 -5 2 -8 12
-7 12 1 16 -6 14 -24 -1 -19 0 -22 8 -10 8 12 14 9 39 -20 29 -34 30 -34 31
-10 0 18 -20 44 -77 97 -75 70 -93 83 -93 65z"/>
<path d="M4876 4081 c-4 -7 -5 -15 -2 -18 9 -9 19 4 14 18 -4 11 -6 11 -12 0z"/>
<path d="M468 4043 c-15 -27 -14 -53 2 -53 4 0 6 8 3 19 -2 10 3 25 11 34 17
17 20 27 8 27 -4 0 -15 -12 -24 -27z"/>
<path d="M317 4037 c-3 -8 1 -14 8 -14 7 0 11 6 8 14 -3 7 -6 13 -8 13 -2 0
-5 -6 -8 -13z"/>
<path d="M4780 4030 c0 -5 5 -10 11 -10 5 0 7 5 4 10 -3 6 -8 10 -11 10 -2 0
-4 -4 -4 -10z"/>
<path d="M40 4014 c-7 -8 -18 -13 -25 -11 -6 3 -12 -6 -13 -19 -1 -13 2 -24 6
-24 15 0 64 58 54 64 -5 3 -15 -1 -22 -10z"/>
<path d="M428 3993 c7 -3 16 -2 19 1 4 3 -2 6 -13 5 -11 0 -14 -3 -6 -6z"/>
<path d="M320 3950 c0 -5 5 -10 11 -10 5 0 7 5 4 10 -3 6 -8 10 -11 10 -2 0
-4 -4 -4 -10z"/>
<path d="M26 3924 c-5 -14 -4 -15 9 -4 17 14 19 20 6 20 -5 0 -12 -7 -15 -16z"/>
<path d="M4870 3916 c0 -8 4 -16 9 -18 5 -1 41 -32 80 -67 53 -48 68 -67 59
-74 -9 -6 -8 -7 5 -3 12 4 28 -9 57 -45 40 -50 40 -51 40 -21 0 16 -7 35 -15
42 -8 7 -12 16 -9 21 3 5 1 8 -4 7 -9 -3 -91 81 -92 95 0 4 -6 7 -14 7 -7 0
-20 7 -27 17 -13 15 -12 15 9 4 21 -11 22 -11 10 8 -8 14 -17 17 -28 11 -10
-5 -23 -2 -39 11 -28 23 -41 24 -41 5z"/>
<path d="M4920 3920 c0 -6 7 -10 15 -10 8 0 15 2 15 4 0 2 -7 6 -15 10 -8 3
-15 1 -15 -4z"/>
<path d="M335 3910 c3 -5 8 -10 11 -10 2 0 4 5 4 10 0 6 -5 10 -11 10 -5 0 -7
-4 -4 -10z"/>
<path d="M4717 3913 c-10 -9 -9 -23 1 -23 5 0 9 7 9 15 0 17 -1 18 -10 8z"/>
<path d="M5045 3900 c-3 -5 -1 -10 4 -10 6 0 11 5 11 10 0 6 -2 10 -4 10 -3 0
-8 -4 -11 -10z"/>
<path d="M292 3870 c0 -14 2 -19 5 -12 2 6 2 18 0 25 -3 6 -5 1 -5 -13z"/>
<path d="M266 3872 c-2 -4 -1 -14 5 -22 7 -12 9 -10 9 8 0 23 -5 28 -14 14z"/>
<path d="M4877 3865 c-5 -11 0 -15 16 -15 12 0 18 4 12 8 -5 4 -13 11 -16 15
-4 4 -9 1 -12 -8z"/>
<path d="M5084 3869 c-3 -6 -14 -9 -24 -6 -18 5 -22 -15 -5 -30 4 -4 5 -2 1 5
-4 7 -2 12 6 12 18 0 57 29 41 30 -6 0 -15 -5 -19 -11z"/>
<path d="M125 3822 c-22 -16 -49 -39 -59 -51 -15 -17 -22 -19 -29 -9 -6 9 -7
8 -3 -4 5 -17 -9 -35 -17 -21 -2 5 -2 3 -1 -4 2 -7 -1 -15 -6 -18 -6 -4 -10
-23 -10 -43 l0 -37 16 32 c9 18 20 31 24 28 4 -3 10 5 13 16 4 13 10 18 18 13
7 -4 10 -3 6 3 -4 6 3 19 14 29 17 16 22 16 30 4 8 -12 9 -10 4 6 -4 16 1 27
21 41 15 11 25 25 23 32 -3 8 -18 2 -44 -17z"/>
<path d="M4745 3841 c-3 -5 -1 -12 4 -15 5 -3 11 1 15 9 6 16 -9 21 -19 6z"/>
<path d="M5065 3800 c10 -11 20 -20 23 -20 3 0 -3 9 -13 20 -10 11 -20 20 -23
20 -3 0 3 -9 13 -20z"/>
<path d="M206 3796 c3 -8 -2 -16 -13 -19 -14 -4 -14 -5 5 -6 22 -1 31 22 12
34 -5 3 -7 0 -4 -9z"/>
<path d="M5103 3795 c-3 -9 -3 -18 -1 -21 3 -3 8 4 11 16 6 23 -1 27 -10 5z"/>
<path d="M4866 3785 c-3 -9 -6 -22 -5 -28 0 -7 5 -1 10 12 5 13 8 26 5 28 -2
2 -6 -3 -10 -12z"/>
<path d="M4917 3783 c-4 -3 -7 -11 -7 -17 0 -6 5 -5 12 2 6 6 9 14 7 17 -3 3
-9 2 -12 -2z"/>
<path d="M4936 3764 c-5 -13 -4 -14 7 -6 8 7 18 8 22 4 5 -4 5 -1 1 6 -10 17
-23 15 -30 -4z"/>
<path d="M140 3751 c0 -6 5 -13 10 -16 6 -3 10 1 10 9 0 9 -4 16 -10 16 -5 0
-10 -4 -10 -9z"/>
<path d="M4867 3733 c-3 -5 -2 -15 2 -22 5 -7 11 -9 14 -4 3 5 2 15 -2 22 -5
7 -11 9 -14 4z"/>
<path d="M4948 3718 c-3 -7 -2 -22 2 -32 6 -19 7 -19 12 1 7 25 -6 53 -14 31z"/>
<path d="M5040 3720 c0 -5 5 -10 11 -10 5 0 7 5 4 10 -3 6 -8 10 -11 10 -2 0
-4 -4 -4 -10z"/>
<path d="M83 3690 c1 -20 12 -26 20 -12 3 4 -1 13 -8 19 -11 10 -13 9 -12 -7z"/>
<path d="M4900 3691 c0 -6 4 -13 10 -16 6 -3 7 1 4 9 -7 18 -14 21 -14 7z"/>
<path d="M4986 3675 c4 -8 11 -15 16 -15 6 0 5 6 -2 15 -7 8 -14 15 -16 15 -2
0 -1 -7 2 -15z"/>
<path d="M5070 3675 c-7 -9 -8 -15 -2 -15 5 0 12 7 16 15 3 8 4 15 2 15 -2 0
-9 -7 -16 -15z"/>
<path d="M5090 3645 c0 -8 4 -15 10 -15 5 0 7 7 4 15 -4 8 -8 15 -10 15 -2 0
-4 -7 -4 -15z"/>
<path d="M320 3636 c0 -2 7 -7 16 -10 8 -3 12 -2 9 4 -6 10 -25 14 -25 6z"/>
<path d="M686 3602 c-9 -29 3 -51 16 -28 5 10 5 23 0 33 -9 14 -10 14 -16 -5z"/>
<path d="M5040 3610 c-24 -15 -7 -18 20 -3 14 7 18 13 10 13 -8 0 -22 -4 -30
-10z"/>
<path d="M180 3555 c-31 -32 -46 -41 -52 -32 -5 8 -8 5 -8 -8 0 -23 -37 -60
-42 -43 -2 5 -10 2 -18 -8 -9 -11 -10 -15 -3 -10 17 10 16 -9 -1 -23 -10 -8
-16 -8 -25 3 -9 11 -9 15 1 19 7 3 3 6 -9 6 -27 1 -30 -14 -5 -28 9 -6 13 -11
7 -11 -5 0 -3 -5 5 -10 13 -8 11 -11 -7 -16 -20 -6 -23 -13 -23 -60 0 -30 5
-54 10 -54 6 0 10 8 10 18 0 10 18 38 40 62 22 24 40 48 40 52 0 4 7 8 15 8 8
0 12 6 9 13 -3 8 22 42 56 77 55 58 73 90 52 90 -4 0 -28 -20 -52 -45z"/>
<path d="M4985 3590 c-8 -13 -1 -24 14 -19 6 3 7 10 2 18 -6 10 -10 10 -16 1z"/>
<path d="M636 3565 c4 -8 8 -15 10 -15 2 0 4 7 4 15 0 8 -4 15 -10 15 -5 0 -7
-7 -4 -15z"/>
<path d="M140 3550 c0 -5 5 -10 11 -10 5 0 7 5 4 10 -3 6 -8 10 -11 10 -2 0
-4 -4 -4 -10z"/>
<path d="M65 3540 c-3 -5 -1 -10 4 -10 6 0 11 5 11 10 0 6 -2 10 -4 10 -3 0
-8 -4 -11 -10z"/>
<path d="M228 3533 c7 -3 16 -2 19 1 4 3 -2 6 -13 5 -11 0 -14 -3 -6 -6z"/>
<path d="M316 3517 c3 -10 9 -15 12 -12 3 3 0 11 -7 18 -10 9 -11 8 -5 -6z"/>
<path d="M600 3515 c0 -8 2 -15 4 -15 2 0 6 7 10 15 3 8 1 15 -4 15 -6 0 -10
-7 -10 -15z"/>
<path d="M96 3503 c-6 -14 -5 -15 5 -6 7 7 10 15 7 18 -3 3 -9 -2 -12 -12z"/>
<path d="M235 3500 c3 -5 8 -10 11 -10 2 0 4 5 4 10 0 6 -5 10 -11 10 -5 0 -7
-4 -4 -10z"/>
<path d="M261 3494 c0 -11 3 -14 6 -6 3 7 2 16 -1 19 -3 4 -6 -2 -5 -13z"/>
<path d="M5057 3489 c4 -13 8 -18 11 -10 2 7 -1 18 -6 23 -8 8 -9 4 -5 -13z"/>
<path d="M198 3483 c6 -2 18 -2 25 0 6 3 1 5 -13 5 -14 0 -19 -2 -12 -5z"/>
<path d="M4930 3485 c0 -5 5 -17 10 -25 5 -8 10 -10 10 -5 0 6 -5 17 -10 25
-5 8 -10 11 -10 5z"/>
<path d="M163 3467 c-20 -25 -22 -34 -8 -34 8 0 13 3 10 5 -3 3 3 10 12 17 10
7 12 14 6 18 -6 4 -15 1 -20 -6z"/>
<path d="M4962 3449 c-10 -16 -10 -24 -1 -35 18 -22 29 -16 19 10 -5 15 -5 27
3 35 6 6 7 11 1 11 -5 0 -15 -9 -22 -21z"/>
<path d="M510 3450 c0 -5 5 -10 11 -10 5 0 7 5 4 10 -3 6 -8 10 -11 10 -2 0
-4 -4 -4 -10z"/>
<path d="M152 3411 c-11 -7 -11 -9 2 -14 10 -4 16 -1 16 8 0 17 -1 17 -18 6z"/>
<path d="M236 3408 c3 -4 12 -8 21 -8 14 0 14 -3 -2 -20 -22 -25 -13 -26 15
-3 27 23 25 30 -9 35 -17 2 -28 1 -25 -4z"/>
<path d="M341 3375 c-12 -19 -21 -40 -18 -47 4 -10 6 -10 6 -1 1 9 8 10 28 2
18 -7 30 -6 37 1 7 7 2 10 -15 10 -35 0 -41 8 -22 36 25 38 10 37 -16 -1z"/>
<path d="M107 3374 c-5 -28 -1 -30 19 -10 18 18 18 22 0 29 -9 4 -16 -3 -19
-19z"/>
<path d="M380 3393 c0 -6 8 -17 18 -24 16 -13 16 -13 2 6 -8 11 -16 22 -17 24
-2 2 -3 0 -3 -6z"/>
<path d="M208 3383 c7 -3 16 -2 19 1 4 3 -2 6 -13 5 -11 0 -14 -3 -6 -6z"/>
<path d="M5033 3373 c9 -2 17 -14 17 -26 0 -17 2 -19 9 -8 13 21 2 41 -23 40
-16 -1 -17 -2 -3 -6z"/>
<path d="M75 3360 c3 -5 8 -10 11 -10 2 0 4 5 4 10 0 6 -5 10 -11 10 -5 0 -7
-4 -4 -10z"/>
<path d="M156 3362 c-2 -4 4 -9 15 -9 10 -1 19 2 19 8 0 11 -27 12 -34 1z"/>
<path d="M4963 3349 c-2 -23 3 -25 10 -4 4 8 3 16 -1 19 -4 3 -9 -4 -9 -15z"/>
<path d="M5001 3334 c0 -11 3 -14 6 -6 3 7 2 16 -1 19 -3 4 -6 -2 -5 -13z"/>
<path d="M51 3326 c-16 -19 -11 -29 8 -17 7 5 12 14 9 21 -3 9 -8 7 -17 -4z"/>
<path d="M185 3330 c-3 -5 -1 -10 5 -10 7 0 10 -7 6 -15 -6 -16 9 -21 18 -6 7
11 -3 41 -14 41 -5 0 -12 -4 -15 -10z"/>
<path d="M112 3300 c0 -14 2 -19 5 -12 2 6 2 18 0 25 -3 6 -5 1 -5 -13z"/>
<path d="M153 3298 c-2 -18 0 -20 7 -8 12 18 13 30 2 30 -4 0 -9 -10 -9 -22z"/>
<path d="M302 3302 c-6 -2 -10 -8 -7 -12 3 -5 13 -6 22 -3 11 4 14 3 9 -5 -4
-7 -2 -12 3 -12 6 0 11 8 11 18 0 18 -12 23 -38 14z"/>
<path d="M4950 3294 c-11 -12 -11 -17 0 -27 10 -10 12 -9 7 5 -4 12 -2 15 9
11 7 -3 14 0 14 5 0 19 -17 22 -30 6z"/>
<path d="M63 3283 c9 -2 14 -9 11 -15 -4 -7 -2 -8 5 -4 15 10 4 26 -17 25 -15
-1 -15 -2 1 -6z"/>
<path d="M30 3259 c0 -5 5 -7 10 -4 6 3 10 8 10 11 0 2 -4 4 -10 4 -5 0 -10
-5 -10 -11z"/>
<path d="M5004 3225 c8 -8 18 -15 22 -15 3 0 1 7 -6 15 -7 8 -17 15 -22 15 -5
0 -3 -7 6 -15z"/>
<path d="M5111 3224 c0 -11 3 -14 6 -6 3 7 2 16 -1 19 -3 4 -6 -2 -5 -13z"/>
<path d="M51 3144 c0 -11 3 -14 6 -6 3 7 2 16 -1 19 -3 4 -6 -2 -5 -13z"/>
<path d="M4941 3144 c0 -11 3 -14 6 -6 3 7 2 16 -1 19 -3 4 -6 -2 -5 -13z"/>
<path d="M185 3140 c-3 -5 -1 -10 4 -10 6 0 11 5 11 10 0 6 -2 10 -4 10 -3 0
-8 -4 -11 -10z"/>
<path d="M5028 3123 c7 -3 16 -2 19 1 4 3 -2 6 -13 5 -11 0 -14 -3 -6 -6z"/>
<path d="M4920 3109 c0 -5 5 -7 10 -4 6 3 10 8 10 11 0 2 -4 4 -10 4 -5 0 -10
-5 -10 -11z"/>
<path d="M135 3090 c-3 -5 1 -10 9 -10 9 0 16 5 16 10 0 6 -4 10 -9 10 -6 0
-13 -4 -16 -10z"/>
<path d="M46 3035 c4 -8 1 -15 -7 -15 -7 0 -10 -2 -7 -5 3 -3 15 -2 26 2 21 8
21 9 2 21 -16 10 -18 9 -14 -3z"/>
<path d="M4948 3027 c-3 -14 0 -24 7 -24 7 0 10 10 7 24 -2 13 -6 23 -7 23 -1
0 -5 -10 -7 -23z"/>
<path d="M4975 3030 c3 -5 8 -10 11 -10 2 0 4 5 4 10 0 6 -5 10 -11 10 -5 0
-7 -4 -4 -10z"/>
<path d="M5026 3017 c3 -10 9 -15 12 -12 3 3 0 11 -7 18 -10 9 -11 8 -5 -6z"/>
<path d="M0 2999 c0 -5 5 -7 10 -4 5 3 10 8 10 11 0 2 -4 4 -10 4 -5 0 -10 -5
-10 -11z"/>
<path d="M5006 2985 c-3 -8 -1 -15 4 -15 6 0 10 7 10 15 0 8 -2 15 -4 15 -2 0
-6 -7 -10 -15z"/>
<path d="M0 800 l0 -255 24 40 c29 48 56 171 56 253 0 73 -23 153 -55 189
l-24 28 -1 -255z"/>
<path d="M1 161 l-1 -161 60 0 59 0 -11 33 c-6 17 -14 37 -18 42 -4 6 -24 62
-45 125 -21 63 -39 117 -41 119 -2 2 -3 -69 -3 -158z"/>
</g>
</svg>
